<svg width="17" height="16" viewBox="0 0 17 16" fill="none" xmlns="http://www.w3.org/2000/svg">
<path d="M12.7105 3.7895H4.2895V12.2105H12.7105V3.7895Z" fill="white"/>
<path d="M12.7104 16L16.4999 12.2105L14.6051 11.8873L12.7105 12.2105L12.3646 13.9436L12.7104 16Z" fill="#EA4335"/>
<path d="M0.5 12.2105V14.7368C0.5 15.4348 1.06525 16 1.76312 16H4.2895L4.67856 14.1053L4.2895 12.2105L2.22494 11.8873L0.5 12.2105Z" fill="#188038"/>
<path d="M16.4999 3.7895V1.26312C16.4999 0.56525 15.9346 0 15.2368 0H12.7104C12.4799 0.93975 12.3646 1.63131 12.3646 2.07475C12.3646 2.51813 12.48 3.08975 12.7105 3.7895C13.5486 4.0295 14.1801 4.1495 14.6051 4.1495C15.0302 4.1495 15.6618 4.0295 16.4999 3.7895Z" fill="#1967D2"/>
<path d="M16.4999 3.7895H12.7105V12.2105L16.4999 12.2105V3.7895Z" fill="#FBBC04"/>
<path d="M12.7105 12.2105H4.2895L4.2895 16H12.7104L12.7105 12.2105Z" fill="#34A853"/>
<path d="M12.7104 0H1.76319C1.06525 0 0.5 0.56525 0.5 1.26312V12.2105L4.2895 12.2105V3.7895H12.7105L12.7104 0Z" fill="#4285F4"/>
<path d="M6.01686 10.3221C5.70211 10.1095 5.48417 9.799 5.36523 9.38837L6.0958 9.08737C6.16205 9.34 6.27786 9.53581 6.44317 9.67475C6.60736 9.81369 6.80736 9.88212 7.04105 9.88212C7.27998 9.88212 7.48523 9.8095 7.6568 9.66419C7.82842 9.51894 7.91473 9.33369 7.91473 9.1095C7.91473 8.88 7.82417 8.69262 7.64317 8.54737C7.46211 8.40212 7.23473 8.3295 6.96317 8.3295H6.54105V7.60637H6.91998C7.15367 7.60637 7.35048 7.54319 7.51048 7.41681C7.67048 7.29056 7.75048 7.11787 7.75048 6.89787C7.75048 6.70212 7.67892 6.54631 7.5358 6.4295C7.39267 6.31262 7.21155 6.25369 6.99155 6.25369C6.7768 6.25369 6.6063 6.31056 6.47998 6.42525C6.35374 6.5403 6.25883 6.68556 6.20417 6.84737L5.48105 6.54631C5.5768 6.27475 5.75261 6.03475 6.01048 5.82737C6.26842 5.62 6.59786 5.51581 6.99786 5.51581C7.29367 5.51581 7.55998 5.57269 7.7958 5.68737C8.03155 5.80212 8.2168 5.96106 8.35048 6.16319C8.48423 6.36631 8.55048 6.59369 8.55048 6.84631C8.55048 7.10419 8.48842 7.32212 8.36423 7.50106C8.23998 7.68 8.08736 7.81681 7.9063 7.91262V7.95575C8.14009 8.05214 8.34316 8.21047 8.49367 8.41369C8.6463 8.61894 8.72317 8.86419 8.72317 9.15056C8.72317 9.43681 8.65048 9.69262 8.50523 9.91681C8.35998 10.1411 8.15898 10.3179 7.90417 10.4463C7.64842 10.5747 7.36105 10.6401 7.04211 10.6401C6.67261 10.6411 6.33161 10.5347 6.01686 10.3221ZM10.5042 6.69681L9.70211 7.27681L9.30105 6.66844L10.74 5.6305H11.2915V10.5263H10.5042V6.69681Z" fill="#4285F4"/>
</svg>
