<svg width="17" height="17" viewBox="0 0 17 17" fill="none" xmlns="http://www.w3.org/2000/svg">
<path d="M0 3C0 1.34315 1.34315 0 3 0H14C15.6569 0 17 1.34315 17 3V14C17 15.6569 15.6569 17 14 17H3C1.34315 17 0 15.6569 0 14V3Z" fill="#F4B400"/>
<path d="M4.67509 7.22504C4.67507 6.59341 4.83147 5.97161 5.13032 5.41515C5.42917 4.8587 5.86116 4.38491 6.38774 4.03609C6.91431 3.68728 7.51907 3.47429 8.14802 3.41615C8.77697 3.35802 9.41052 3.45653 9.99211 3.70291C10.5737 3.94929 11.0852 4.33586 11.481 4.82811C11.8768 5.32035 12.1445 5.90295 12.2603 6.52388C12.3761 7.14481 12.3363 7.78474 12.1444 8.38654C11.9526 8.98833 11.6148 9.53326 11.161 9.97266C11.0316 10.0976 10.9322 10.2277 10.8722 10.3673L10.3865 11.495C10.3618 11.5522 10.321 11.6009 10.269 11.6351C10.217 11.6693 10.1561 11.6875 10.0938 11.6875H6.90634C6.84399 11.6876 6.78297 11.6695 6.73085 11.6352C6.67873 11.601 6.63778 11.5523 6.61309 11.495L6.12795 10.3666C6.05849 10.2176 5.96036 10.0838 5.83917 9.97266C5.47045 9.6164 5.17733 9.18948 4.97733 8.71739C4.77732 8.2453 4.67453 7.73774 4.67509 7.22504ZM6.58759 12.6438C6.58759 12.5592 6.62117 12.4782 6.68095 12.4184C6.74073 12.3586 6.8218 12.325 6.90634 12.325H10.0938C10.1784 12.325 10.2595 12.3586 10.3192 12.4184C10.379 12.4782 10.4126 12.5592 10.4126 12.6438C10.4126 12.7283 10.379 12.8094 10.3192 12.8692C10.2595 12.929 10.1784 12.9625 10.0938 12.9625L9.95104 13.2475C9.89813 13.3534 9.8168 13.4424 9.71614 13.5047C9.61548 13.567 9.49948 13.6 9.38112 13.6H7.61907C7.50071 13.6 7.3847 13.567 7.28404 13.5047C7.18338 13.4424 7.10205 13.3534 7.04914 13.2475L6.90634 12.9625C6.8218 12.9625 6.74073 12.929 6.68095 12.8692C6.62117 12.8094 6.58759 12.7283 6.58759 12.6438Z" fill="white"/>
</svg>
